<svg width="10" height="9" viewBox="0 0 10 9" fill="none" xmlns="http://www.w3.org/2000/svg">
<path d="M4.76224 0.731763C4.83707 0.501435 5.16293 0.501435 5.23776 0.731763L6.06644 3.28217C6.09991 3.38517 6.1959 3.45492 6.30421 3.45492H8.98586C9.22804 3.45492 9.32874 3.76482 9.13281 3.90717L6.9633 5.48341C6.87568 5.54707 6.83902 5.65991 6.87249 5.76292L7.70116 8.31332C7.776 8.54365 7.51238 8.73518 7.31645 8.59283L5.14695 7.01659C5.05932 6.95293 4.94068 6.95293 4.85305 7.01659L2.68355 8.59283C2.48762 8.73518 2.224 8.54365 2.29884 8.31332L3.12752 5.76292C3.16098 5.65991 3.12432 5.54707 3.0367 5.48341L0.867192 3.90717C0.671264 3.76482 0.771958 3.45492 1.01414 3.45492H3.69579C3.8041 3.45492 3.90009 3.38517 3.93356 3.28217L4.76224 0.731763Z" fill="#FFB673"/>
</svg>
