<svg width="16" height="16" viewBox="0 0 16 16" fill="none" xmlns="http://www.w3.org/2000/svg">
    <path d="M4.706 0.470581H2.82364C1.52415 0.470581 0.470703 1.52403 0.470703 2.82352V4.70588C0.470703 6.00537 1.52415 7.05882 2.82364 7.05882H4.706C6.00549 7.05882 7.05894 6.00537 7.05894 4.70588V2.82352C7.05894 1.52403 6.00549 0.470581 4.706 0.470581Z" fill="black" />
    <path d="M13.1765 0.470581H11.2941C9.99461 0.470581 8.94116 1.52403 8.94116 2.82352V4.70588C8.94116 6.00537 9.99461 7.05882 11.2941 7.05882H13.1765C14.4759 7.05882 15.5294 6.00537 15.5294 4.70588V2.82352C15.5294 1.52403 14.4759 0.470581 13.1765 0.470581Z" fill="black" />
    <path d="M4.706 8.94116H2.82364C1.52415 8.94116 0.470703 9.99461 0.470703 11.2941V13.1765C0.470703 14.4759 1.52415 15.5294 2.82364 15.5294H4.706C6.00549 15.5294 7.05894 14.4759 7.05894 13.1765V11.2941C7.05894 9.99461 6.00549 8.94116 4.706 8.94116Z" fill="black" />
    <path d="M13.1765 8.94116H11.2941C9.99461 8.94116 8.94116 9.99461 8.94116 11.2941V13.1765C8.94116 14.4759 9.99461 15.5294 11.2941 15.5294H13.1765C14.4759 15.5294 15.5294 14.4759 15.5294 13.1765V11.2941C15.5294 9.99461 14.4759 8.94116 13.1765 8.94116Z" fill="black" />
</svg>